<?xml version="1.0" encoding="utf-8"?>
<!-- Generator: Adobe Illustrator 22.1.0, SVG Export Plug-In . SVG Version: 6.00 Build 0)  -->
<svg version="1.1" id="Layer_1" xmlns="http://www.w3.org/2000/svg" xmlns:xlink="http://www.w3.org/1999/xlink" x="0px" y="0px"
	 viewBox="0 0 40 40" style="enable-background:new 0 0 40 40;" xml:space="preserve">
<style type="text/css">
	.st0{fill:#FFFFFF;stroke:#FFFFFF;stroke-miterlimit:10;}
	.st1{fill:#FFFFFF;}
	.st2{fill:none;stroke:#FFFFFF;stroke-width:1.5;stroke-miterlimit:10;}
	.st3{fill:none;stroke:#FFFFFF;stroke-width:0.75;stroke-miterlimit:10;}
	.st4{fill:none;stroke:#FFFFFF;stroke-width:0.5;stroke-miterlimit:10;}
	.st5{fill:#FFFFFF;stroke:#FFFFFF;stroke-width:0.25;stroke-miterlimit:10;}
</style>
<g>
	<g>
		<circle cx="19.8" cy="20.4" r="19.1"/>
	</g>
	<path class="st0" d="M22.8,28.9h-6.1c-0.2,0-0.4-0.2-0.4-0.4v-0.7c0-0.2,0.2-0.4,0.4-0.4h6.1c0.2,0,0.4,0.2,0.4,0.4v0.7
		C23.2,28.7,23,28.9,22.8,28.9z"/>
	<g>
		<g>
			<path class="st1" d="M17.7,30.7h4.2c0,0-0.2,2.1-2.1,2.1"/>
			<path class="st1" d="M21.8,30.7h-4.2c0,0,0.2,2.1,2.1,2.1"/>
		</g>
		<line class="st1" x1="20.4" y1="32.8" x2="19.7" y2="32.8"/>
		<path class="st1" d="M22,31.1h-4.5c-0.3,0-0.6-0.3-0.6-0.6v0c0-0.3,0.3-0.6,0.6-0.6H22c0.3,0,0.6,0.3,0.6,0.6v0
			C22.6,30.9,22.3,31.1,22,31.1z"/>
	</g>
	<g>
		<g>
			<path class="st2" d="M19.8,25.6h3.9c0,0,0-1.3,1.1-2.3S33,12,19.8,9.8"/>
			<path class="st2" d="M19.8,25.6h-3.9c0,0,0-1.3-1.1-2.3S6.6,12,19.8,9.8"/>
			<rect x="19.5" y="8.8" class="st1" width="0.5" height="1"/>
		</g>
		<path class="st3" d="M14.8,17c0,0,3.2-1.6,2.1-2.2c-1.1-0.6,0.2,2,0.2,2h4.6"/>
		<path class="st3" d="M24.6,17c0,0-3.2-1.6-2.1-2.2c1.1-0.6-0.2,2-0.2,2h-4.6"/>
	</g>
	<polyline class="st4" points="17.8,17 18.9,15.2 19.2,16.8 19.8,15.2 20.4,16.6 20.9,15.2 21.7,17 	"/>
</g>
<circle class="st5" cx="19.8" cy="9.5" r="1"/>
<line class="st2" x1="21.8" y1="25.6" x2="17.9" y2="25.6"/>
</svg>
